<svg height="15" viewBox="0 0 15 15" width="15" xmlns="http://www.w3.org/2000/svg"><path d="m3.2114625 0h1.07049375c.59120625 0 1.070475.47969438 1.070475 1.07142937 0 .59173313-.47926875 1.07143313-1.070475 1.07143313h-1.07049375c-.59120625 0-1.07049375.47968125-1.07049375 1.07143125v8.57141255c0 .5917499.4792875 1.0714312 1.07049375 1.0714312h8.5638937c.5912063 0 1.0704938-.4796813 1.0704938-1.0714312v-1.0714126c0-.5917499.4792687-1.0714312 1.070475-1.0714312.591225 0 1.0704937.4796813 1.0704937 1.0714312v1.0714126c0 1.7752125-1.437825 3.2142937-3.2114625 3.2142937h-8.5638937c-1.77364313 0-3.2114625-1.4390812-3.2114625-3.2142937v-8.57141255c0-1.77520875 1.43781937-3.21429375 3.2114625-3.21429375zm10.7180437 0c.4328063.00050362.8227313.26180625.9880688.66214313.0540187.1296975.0820313.26876625.082425.40928624v5.35713938c0 .59173125-.4792687 1.07143125-1.0704937 1.07143125-.5912063 0-1.0704751-.4797-1.0704751-1.07143125v-2.77070625l-3.52511245 3.52820625c-.26878125.27853125-.6667875.390225-1.04105625.29218125-.3742875-.0980625-.66658125-.3906-.76453125-.76520625-.09796875-.37460625.01363125-.77296875.29191875-1.041975l3.5251125-3.52820625h-2.7682875c-.59120625 0-1.07049375-.4797-1.07049375-1.07143313 0-.59173499.4792875-1.07142937 1.07049375-1.07142937z" fill="#0069d9" fill-rule="evenodd"/></svg>
