<svg width="60" height="51" viewBox="0 0 60 51" fill="none" xmlns="http://www.w3.org/2000/svg">
<path d="M8 30H4C1.79086 30 0 31.7909 0 34V47C0 49.2091 1.79086 51 4 51H8C10.2091 51 12 49.2091 12 47V34C12 31.7909 10.2091 30 8 30Z" fill="#0069D9"/>
<path d="M24 11H20C17.7909 11 16 12.7909 16 15V47C16 49.2091 17.7909 51 20 51H24C26.2091 51 28 49.2091 28 47V15C28 12.7909 26.2091 11 24 11Z" fill="#0069D9"/>
<path d="M40 21H36C33.7909 21 32 22.7909 32 25V47C32 49.2091 33.7909 51 36 51H40C42.2091 51 44 49.2091 44 47V25C44 22.7909 42.2091 21 40 21Z" fill="#0069D9"/>
<path d="M56 0H52C49.7909 0 48 1.79086 48 4V47C48 49.2091 49.7909 51 52 51H56C58.2091 51 60 49.2091 60 47V4C60 1.79086 58.2091 0 56 0Z" fill="#0069D9"/>
</svg>
